<svg xmlns="http://www.w3.org/2000/svg" width="44" height="44" viewBox="0 0 44 44">
	<defs>
		<style>
			.a{fill:none;}.b{fill:#ffffff;}
		</style>
	</defs>
	<rect class="a" width="44" height="44" />
	<g transform="translate(5.5 5.5)">
		<path class="b" d="M28.667,17.667a12.169,12.169,0,0,1,1.833.165V8.995L16.75,3,3,8.995v9C3,26.32,8.867,34.112,16.75,36a16.8,16.8,0,0,0,2.933-1.008,10.982,10.982,0,0,1,8.983-17.325Z" transform="translate(-3 -3)" />
		<path class="b" d="M20.333,13a7.333,7.333,0,1,0,7.333,7.333A7.331,7.331,0,0,0,20.333,13Zm0,2.53a2.053,2.053,0,1,1-2.053,2.053A2.062,2.062,0,0,1,20.333,15.53Zm0,9.845a5,5,0,0,1-4.107-2.145c.092-1.32,2.768-1.98,4.107-1.98s4.015.66,4.107,1.98A5,5,0,0,1,20.333,25.375Z" transform="translate(5.333 5.333)" />
	</g>
</svg>
