<svg xmlns="http://www.w3.org/2000/svg" width="42.426" height="44.547" viewBox="0 0 42.426 44.547">
  <g id="Group_5560" data-name="Group 5560" transform="translate(9055 -3934.908)">
    <g id="Group_5559" data-name="Group 5559" transform="translate(-10588.332 3910)">
      <g id="Group_4378" data-name="Group 4378">
        <g id="notification_1_" data-name="notification (1)" transform="translate(1533.332 18.544)">
          <path id="Path_517" data-name="Path 517" d="M141.287,425.546a7.965,7.965,0,0,1-7.955-7.955,1.591,1.591,0,1,1,3.182,0,4.773,4.773,0,0,0,9.546,0,1.591,1.591,0,1,1,3.182,0A7.964,7.964,0,0,1,141.287,425.546Zm0,0" transform="translate(-120.074 -374.635)" fill="#666"/>
          <path id="Path_518" data-name="Path 518" d="M38.713,102.183h-35A3.713,3.713,0,0,1,1.3,95.65a1.466,1.466,0,0,1,.17-.127,14.257,14.257,0,0,0,4.9-10.755V78.849A14.867,14.867,0,0,1,21.213,64a6.39,6.39,0,0,1,1.046.064,1.59,1.59,0,1,1-.522,3.137,3.339,3.339,0,0,0-.524-.019A11.681,11.681,0,0,0,9.546,78.849v5.918a17.447,17.447,0,0,1-6.158,13.3c-.032.026-.059.049-.094.072a.525.525,0,0,0-.112.329.536.536,0,0,0,.53.53h35a.536.536,0,0,0,.531-.53.507.507,0,0,0-.115-.329c-.032-.023-.059-.047-.091-.072a17.443,17.443,0,0,1-6.158-13.3V82.456a1.591,1.591,0,1,1,3.182,0v2.312a14.262,14.262,0,0,0,4.9,10.762,1.547,1.547,0,0,1,.163.123,3.711,3.711,0,0,1-2.414,6.531Zm0,0" transform="translate(0 -57.636)" fill="#666"/>
        </g>
      </g>
    </g>
    <path id="Path_700" data-name="Path 700" d="M-9020.521,3953.962s.446-17.7-12.821-17.478" fill="none" stroke="#666" stroke-linecap="round" stroke-width="3"/>
  </g>
</svg>
