<svg xmlns="http://www.w3.org/2000/svg" width="40" height="40" viewBox="0 0 40 40"><defs><style>.a{fill:none;}.b{fill:#fff;}</style></defs><g transform="translate(-965 155)"><rect class="a" width="40" height="40" transform="translate(965 -155)"/><path class="b" d="M32.778,6.722V32.778H6.722V6.722H32.778m0-3.722H6.722A3.721,3.721,0,0,0,3,6.722V32.778A3.721,3.721,0,0,0,6.722,36.5H32.778A3.733,3.733,0,0,0,36.5,32.778V6.722A3.733,3.733,0,0,0,32.778,3ZM19.75,19.75a5.583,5.583,0,1,1,5.583-5.583A5.6,5.6,0,0,1,19.75,19.75Zm0-7.444a1.861,1.861,0,1,0,1.861,1.861A1.867,1.867,0,0,0,19.75,12.306ZM30.917,30.917H8.583V28.069c0-4.653,7.389-6.663,11.167-6.663s11.167,2.01,11.167,6.663ZM12.883,27.194H26.618A13.048,13.048,0,0,0,19.75,25.11a12.994,12.994,0,0,0-6.868,2.084Z" transform="translate(965 -155)"/></g></svg>