<?xml version="1.0" standalone="no"?>
<!DOCTYPE svg PUBLIC "-//W3C//DTD SVG 20010904//EN"
 "http://www.w3.org/TR/2001/REC-SVG-20010904/DTD/svg10.dtd">
<svg version="1.0" xmlns="http://www.w3.org/2000/svg"
 width="306.000000pt" height="296.000000pt" viewBox="0 0 306.000000 296.000000"
 preserveAspectRatio="xMidYMid meet">
<metadata>
Created by potrace 1.16, written by Peter Selinger 2001-2019
</metadata>
<g transform="translate(0.000000,296.000000) scale(0.100000,-0.100000)"
fill="#000000" stroke="none">
<path d="M1350 2949 c-252 -32 -466 -111 -662 -241 -102 -68 -275 -234 -354
-338 -127 -168 -228 -375 -276 -567 -20 -77 -23 -115 -23 -293 0 -229 9 -292
72 -480 218 -656 849 -1071 1546 -1019 751 56 1350 645 1394 1371 l6 98 -455
0 -455 0 -6 -57 c-15 -136 -100 -293 -205 -380 -66 -53 -193 -116 -270 -132
-362 -75 -716 209 -716 574 0 148 48 271 150 384 98 108 235 177 387 196 l57
7 0 444 0 444 -62 -1 c-35 -1 -92 -5 -128 -10z"/>
<path d="M1740 2840 l0 -120 115 0 115 0 0 120 0 120 -115 0 -115 0 0 -120z"/>
<path d="M2810 2845 l0 -115 120 0 120 0 0 115 0 115 -120 0 -120 0 0 -115z"/>
<path d="M2090 2835 l0 -115 120 0 120 0 0 115 0 115 -120 0 -120 0 0 -115z"/>
<path d="M2450 2835 l0 -115 120 0 120 0 0 115 0 115 -120 0 -120 0 0 -115z"/>
<path d="M1740 2505 l0 -115 115 0 115 0 0 115 0 115 -115 0 -115 0 0 -115z"/>
<path d="M2450 2500 l0 -120 120 0 120 0 0 120 0 120 -120 0 -120 0 0 -120z"/>
<path d="M2810 2505 l0 -115 120 0 120 0 0 115 0 115 -120 0 -120 0 0 -115z"/>
<path d="M2100 2495 l0 -115 115 0 115 0 0 115 0 115 -115 0 -115 0 0 -115z"/>
<path d="M2810 2175 l0 -115 120 0 120 0 0 115 0 115 -120 0 -120 0 0 -115z"/>
<path d="M1740 2165 l0 -115 115 0 115 0 0 115 0 115 -115 0 -115 0 0 -115z"/>
<path d="M2100 2165 l0 -115 115 0 115 0 0 115 0 115 -115 0 -115 0 0 -115z"/>
<path d="M2460 2165 l0 -115 115 0 115 0 0 115 0 115 -115 0 -115 0 0 -115z"/>
<path d="M2460 1830 l0 -120 115 0 115 0 0 120 0 120 -115 0 -115 0 0 -120z"/>
<path d="M2810 1835 l0 -115 120 0 120 0 0 115 0 115 -120 0 -120 0 0 -115z"/>
<path d="M2100 1825 l0 -115 115 0 115 0 0 115 0 115 -115 0 -115 0 0 -115z"/>
</g>
</svg>
