<?xml version="1.0" ?><svg viewBox="0 0 64 64" xmlns="http://www.w3.org/2000/svg"><defs><style>.cls-1{fill:#8bc4ff;}.cls-2{fill:#d1e7ff;}.cls-3{fill:#2e58ff;}</style></defs><title/><g data-name="Profile Protection" id="Profile_Protection"><path class="cls-1" d="M58,13v9.77A42.61,42.61,0,0,1,32,62,42.59,42.59,0,0,1,6,22.77V13L32,2Z"/><path class="cls-2" d="M34.82,27.3a6,6,0,0,1-5.63,0h0a6,6,0,1,1,5.64,0Z"/><path class="cls-2" d="M45,40H19A13,13,0,0,1,29.18,27.3a6,6,0,0,0,5.64,0A13,13,0,0,1,45,40Z"/><path class="cls-3" d="M58.78,11.16C30.58-.77,32.33-.31,31.22.16l-26,11A2,2,0,0,0,4,13v9.77A44.5,44.5,0,0,0,31.22,63.84a2,2,0,0,0,1.56,0A44.5,44.5,0,0,0,60,22.77V13A2,2,0,0,0,58.78,11.16ZM56,22.77A40.52,40.52,0,0,1,32,59.82a40.52,40.52,0,0,1-24-37V14.33L32,4.17,56,14.33Z"/><path class="cls-3" d="M25.42,26.52A14.89,14.89,0,0,0,17,40a2,2,0,0,0,2,2H45a2,2,0,0,0,2-2,14.89,14.89,0,0,0-8.42-13.48,8,8,0,1,0-13.16,0ZM42.81,38H21.19A11.12,11.12,0,0,1,29,29.41a8,8,0,0,0,6,0A11.12,11.12,0,0,1,42.81,38ZM36,22a4,4,0,1,1-4-4A4,4,0,0,1,36,22Z"/></g></svg>