<?xml version="1.0" standalone="no"?>
<!DOCTYPE svg PUBLIC "-//W3C//DTD SVG 20010904//EN"
 "http://www.w3.org/TR/2001/REC-SVG-20010904/DTD/svg10.dtd">
<svg version="1.0" xmlns="http://www.w3.org/2000/svg"
 width="213.000000pt" height="237.000000pt" viewBox="0 0 213.000000 237.000000"
 preserveAspectRatio="xMidYMid meet">
<metadata>
Created by potrace 1.16, written by Peter Selinger 2001-2019
</metadata>
<g transform="translate(0.000000,237.000000) scale(0.100000,-0.100000)"
fill="#000000" stroke="none">
<path d="M755 2289 c-190 -31 -335 -163 -390 -353 -23 -80 -17 -219 14 -299
33 -84 105 -174 178 -222 56 -36 62 -43 62 -75 l1 -35 -90 -28 c-301 -93 -442
-333 -457 -782 -5 -165 -5 -171 17 -198 76 -96 379 -159 825 -173 l190 -6 -30
20 c-37 24 -165 242 -172 293 -6 44 24 109 61 129 23 12 26 20 26 65 0 45 -3
52 -29 68 -33 19 -61 72 -61 114 0 41 137 278 175 303 35 23 108 26 144 6 20
-11 29 -10 62 8 32 17 39 26 37 46 -2 20 -18 33 -87 67 -46 23 -108 48 -137
54 -53 12 -54 13 -54 48 0 33 4 38 45 60 25 13 70 51 100 83 103 111 150 260
127 401 -35 210 -202 377 -408 407 -78 11 -80 11 -149 -1z"/>
<path d="M1448 1173 c-27 -4 -28 -7 -28 -64 0 -48 -3 -61 -17 -65 -42 -12
-142 -67 -163 -89 l-22 -24 -55 31 c-29 17 -55 29 -57 27 -11 -14 -106 -182
-104 -184 2 -2 26 -17 55 -34 l51 -32 -10 -37 c-9 -32 -7 -141 3 -181 2 -8
-13 -24 -36 -38 -22 -13 -46 -27 -54 -32 -11 -6 -2 -27 39 -97 29 -49 54 -91
56 -93 2 -2 27 9 57 24 l53 28 46 -35 c25 -19 71 -46 102 -58 l56 -24 0 -63 0
-63 110 0 110 0 0 63 0 63 56 24 c31 12 77 39 102 58 l46 35 53 -28 c30 -15
55 -26 57 -24 2 2 27 44 56 93 41 70 50 91 39 97 -8 5 -32 19 -54 32 -33 19
-39 27 -35 47 6 32 6 146 0 185 -5 27 -1 32 42 55 26 14 50 28 53 31 4 5 -81
163 -101 188 -2 2 -24 -8 -50 -23 -25 -14 -50 -26 -55 -26 -5 0 -28 15 -52 33
-38 29 -90 55 -139 71 -15 4 -18 17 -18 64 l0 59 -37 7 c-40 6 -110 6 -155 -1z
m187 -307 c142 -66 199 -221 131 -359 -96 -197 -376 -196 -473 1 -86 176 42
382 237 382 37 0 72 -8 105 -24z"/>
</g>
</svg>
